<svg version="1.2" xmlns="http://www.w3.org/2000/svg" viewBox="0 0 179 34" width="179" height="34">
	<title>movies-logo</title>
	<style>
		.s0 { fill: #c90900 } 
		.s1 { fill: #ff9580 } 
	</style>
	<path id="MOVIES" fill-rule="evenodd" class="s0" d="m9.1 32h-6.4q-1.5 0-1.5-1.5v-27.8q0-1.6 1.5-1.6h6.9q1.3 0 2 1.3l3.9 7q0.2 0.4 0.3 0.6 0.2 0.1 0.5 0.1h0.3q0.3 0 0.4-0.1 0.2-0.2 0.4-0.6l3.8-7q0.7-1.3 2-1.3h7q1.5 0 1.5 1.6v27.8q0 1.5-1.5 1.5h-6.6q-1.6 0-1.6-1.5v-15.1l-2.5 4.6q-0.8 1.4-2.3 1.4h-1.7q-1.6 0-2.3-1.4l-2.5-4.6v15.1q0 1.5-1.6 1.5zm54.8-22.7v14.6q0 2-0.6 3.6-0.6 1.6-2.1 2.7-1.4 1.2-4 1.8-2.6 0.6-6.7 0.6-4 0-6.6-0.6-2.6-0.6-4.1-1.8-1.4-1.1-2-2.7-0.6-1.6-0.6-3.6v-14.6q0-2 0.6-3.6 0.6-1.6 2-2.8 1.5-1.1 4.1-1.8 2.6-0.6 6.6-0.6 4.1 0 6.7 0.6 2.6 0.7 4 1.8 1.5 1.2 2.1 2.8 0.6 1.6 0.6 3.6zm-17 1.5v11.6q0 0.8 0.7 1.4 0.6 0.6 2.9 0.6 2.4 0 3-0.6 0.6-0.6 0.6-1.4v-11.6q0-0.8-0.6-1.4-0.6-0.5-3-0.5-2.3 0-2.9 0.5-0.7 0.6-0.7 1.4zm40.7 21.2h-11.2q-0.8 0-1.3-0.3-0.5-0.3-0.9-1.1l-4.2-10.5q-0.5-1.3-0.8-2.2-0.3-0.8-0.4-1.7-0.1-0.9-0.1-2.2v-11.3q0-1.6 1.5-1.6h6.8q1.7 0 1.7 1.6v11.8q0 0.4 0.1 0.9 0.1 0.4 0.3 0.9l2 6q0.2 0.7 0.8 0.7h0.5q0.6 0 0.8-0.7l2-6.1q0.2-0.4 0.3-0.9 0-0.4 0-0.8v-11.8q0-1.6 1.6-1.6h6.7q1.6 0 1.6 1.6v11.3q0 1.3-0.1 2.2-0.2 0.9-0.5 1.7-0.3 0.9-0.8 2.2l-4.2 10.5q-0.3 0.8-0.8 1.1-0.5 0.3-1.4 0.3zm32.2 0h-18.3q-1.5 0-1.5-1.5v-5.1q0-1.6 1.5-1.6h4.3v-14.4h-4.3q-1.5 0-1.5-1.5v-5.2q0-1.6 1.5-1.6h18.3q1.6 0 1.6 1.6v5.2q0 1.5-1.6 1.5h-4.1v14.4h4.1q1.6 0 1.6 1.6v5.1q0 1.5-1.6 1.5zm28.3 0h-19.9q-1.5 0-1.5-1.5v-27.8q0-1.6 1.5-1.6h19.9q1.6 0 1.6 1.6v5q0 1.5-1.6 1.5h-11.8v3.3h8.4q1.5 0 1.5 1.6v4.6q0 1.5-1.5 1.5h-8.4v3.7h11.8q1.6 0 1.6 1.5v5.1q0 1.5-1.6 1.5zm21 0h-13.6q-1.5 0-1.5-1.5v-5.1q0-1.5 1.5-1.5h11.6q0.5 0 0.8-0.3 0.3-0.4 0.3-0.9 0-0.8-0.3-1.1-0.3-0.4-0.8-0.4l-6.5-0.9q-3-0.5-4.8-2-1.8-1.5-1.8-5.1v-4.5q0-3.7 2.3-5.6 2.4-2 6.6-2h12q1.6 0 1.6 1.6v5.1q0 1.5-1.6 1.5h-10q-1.2 0-1.2 1.3 0 1.3 1.2 1.4l6.4 0.8q2 0.3 3.5 1.1 1.5 0.7 2.3 2.2 0.9 1.5 0.9 3.9v4.5q0 3.6-2.4 5.6-2.3 1.9-6.5 1.9z"/>
	<path id="MOVIES" fill-rule="evenodd" class="s1" d="m16.3 15.5q0.8 0 1.1-0.3 0.4-0.4 1.1-1.5l5.2-8q0.3-0.4 0.6-0.5 0.3-0.2 0.7-0.2h0.7q1.2 0 1.2 1.3v21.8h-0.5v-21.8q0-0.3-0.1-0.6-0.1-0.3-0.6-0.3h-0.6q-0.3 0-0.6 0.1-0.2 0.1-0.4 0.5l-5.3 7.9q-0.7 1.2-1.2 1.6-0.4 0.4-1.3 0.4-0.9 0-1.4-0.4-0.4-0.4-1.1-1.6l-5.3-7.9q-0.2-0.4-0.5-0.5-0.2-0.1-0.5-0.1h-0.7q-0.4 0-0.5 0.3-0.1 0.3-0.1 0.6v21.8h-0.5v-21.8q0-1.3 1.1-1.3h0.8q0.3 0 0.7 0.2 0.3 0.1 0.6 0.5l5.2 8q0.7 1.1 1.1 1.5 0.3 0.3 1.1 0.3zm34.1 13.2q-3.3 0-5.2-0.7-1.9-0.8-2.7-2-0.7-1.4-0.7-3.1v-12.6q0-1.8 0.7-3.1 0.8-1.3 2.7-2 1.9-0.7 5.2-0.7 3.4 0 5.3 0.7 1.9 0.7 2.7 2 0.8 1.3 0.8 3.1v12.6q0 1.7-0.8 3.1-0.8 1.2-2.7 2-1.9 0.7-5.3 0.7zm0-0.4q3.3 0 5.1-0.7 1.8-0.7 2.5-1.9 0.7-1.2 0.7-2.8v-12.6q0-1.7-0.7-2.9-0.7-1.2-2.5-1.8-1.8-0.7-5.1-0.7-3.1 0-4.9 0.7-1.8 0.6-2.6 1.8-0.7 1.2-0.7 2.9v12.6q0 1.6 0.7 2.8 0.8 1.2 2.6 1.9 1.8 0.7 4.9 0.7zm23.1-23.3h0.4v9.3q0 2.3 0.7 3.9l2.9 6.9q0.4 1.1 1 1.9 0.5 0.7 1.7 0.7h3.8q1.2 0 1.7-0.7 0.5-0.8 1-1.9l2.8-6.9q0.7-1.6 0.7-3.9v-9.3h0.4v9.3q0 1.2-0.2 2.2-0.1 1-0.5 1.9l-2.8 6.9q-0.5 1.2-1.2 2-0.6 0.8-1.9 0.8h-3.8q-1.4 0-2-0.8-0.6-0.8-1.2-2l-2.8-6.9q-0.4-0.9-0.6-1.9-0.1-1-0.1-2.2zm30.3 0.4v-0.4h13.7v0.4h-6.6v22.3h6.6v0.4h-13.7v-0.4h6.7v-22.3zm27.9 22.3h14.1v0.4h-14.5v-23.1h14.5v0.4h-14.1v10.7h10.6v0.5h-10.6zm40.8-22.7v0.4h-9.5q-1.8 0-2.9 1-1 1-1 2.5v3.5q0 1.5 0.6 2.1 0.6 0.5 1.5 0.7l9.1 1.9q1.3 0.2 2.1 1.1 0.9 0.8 0.9 3.1v2.5q0 1.9-1.3 3.1-1.3 1.2-3.5 1.2h-10.7v-0.4h10.7q2 0 3.2-1.1 1.1-1.1 1.1-2.8v-2.5q0-2-0.7-2.8-0.7-0.7-1.9-1l-9-1.8q-1.2-0.2-1.9-0.9-0.7-0.7-0.7-2.4v-3.5q0-1.8 1.2-2.8 1.2-1.1 3.2-1.1z"/>
</svg>